<svg width="24" height="24" viewBox="0 0 24 24" fill="none" xmlns="http://www.w3.org/2000/svg">
<path d="M11.9214 4.8C11.2233 4.8 10.5408 5.00292 9.96038 5.3831C9.37993 5.76328 8.92752 6.30365 8.66037 6.93586C8.39322 7.56808 8.32332 8.26375 8.45951 8.93491C8.5957 9.60606 8.93187 10.2226 9.4255 10.7064C9.91914 11.1903 10.5481 11.5198 11.2328 11.6533C11.9174 11.7868 12.6271 11.7183 13.2721 11.4564C13.9171 11.1946 14.4683 10.7511 14.8562 10.1821C15.244 9.61315 15.451 8.94422 15.451 8.25991C15.451 7.80555 15.3597 7.35564 15.1823 6.93586C15.005 6.51609 14.745 6.13467 14.4172 5.81339C14.0895 5.4921 13.7003 5.23725 13.2721 5.06337C12.8439 4.8895 12.3849 4.8 11.9214 4.8ZM11.9214 10.2365C11.5225 10.2365 11.1327 10.1206 10.8011 9.90339C10.4695 9.6862 10.211 9.3775 10.0584 9.01632C9.90577 8.65515 9.86584 8.25772 9.94365 7.87429C10.0215 7.49087 10.2135 7.13868 10.4955 6.86224C10.7775 6.58581 11.1368 6.39756 11.528 6.32129C11.9191 6.24502 12.3246 6.28417 12.693 6.43377C13.0615 6.58337 13.3764 6.83672 13.598 7.16177C13.8195 7.48682 13.9378 7.86898 13.9378 8.25991C13.9378 8.78414 13.7254 9.28689 13.3472 9.65758C12.969 10.0283 12.4562 10.2365 11.9214 10.2365ZM4.8626 5.79401C4.36508 5.79413 3.87877 5.93884 3.46516 6.20987C3.05154 6.48089 2.7292 6.86605 2.53889 7.31665C2.34858 7.76724 2.29884 8.26303 2.39597 8.74133C2.4931 9.21963 2.73274 9.65896 3.08458 10.0038C3.43642 10.3486 3.88466 10.5834 4.37262 10.6785C4.86059 10.7736 5.36637 10.7247 5.826 10.538C6.28564 10.3514 6.67849 10.0353 6.95488 9.62983C7.23128 9.22433 7.3788 8.74759 7.3788 8.25991C7.3788 7.93604 7.31371 7.61533 7.18725 7.31612C7.0608 7.01691 6.87545 6.74504 6.64179 6.51606C6.40813 6.28707 6.13074 6.10544 5.82546 5.98155C5.52019 5.85767 5.193 5.79394 4.8626 5.79401ZM4.8626 9.66899C4.57829 9.66899 4.30037 9.58635 4.06397 9.43152C3.82758 9.27669 3.64333 9.05662 3.53453 8.79914C3.42573 8.54167 3.39726 8.25835 3.45273 7.98501C3.50819 7.71168 3.6451 7.4606 3.84614 7.26354C4.04717 7.06647 4.30331 6.93227 4.58216 6.8779C4.86101 6.82353 5.15004 6.85144 5.41271 6.95809C5.67537 7.06474 5.89988 7.24534 6.05783 7.47707C6.21579 7.70879 6.3001 7.98122 6.3001 8.25991C6.3001 8.44495 6.26291 8.62819 6.19067 8.79914C6.11843 8.9701 6.01255 9.12544 5.87906 9.25628C5.74558 9.38713 5.58711 9.49092 5.41271 9.56173C5.2383 9.63255 5.05137 9.66899 4.8626 9.66899ZM18.9865 5.79401C18.489 5.79413 18.0027 5.93884 17.5891 6.20987C17.1755 6.48089 16.8531 6.86605 16.6628 7.31665C16.4725 7.76724 16.4228 8.26303 16.5199 8.74133C16.617 9.21963 16.8567 9.65896 17.2085 10.0038C17.5603 10.3486 18.0086 10.5834 18.4965 10.6785C18.9845 10.7736 19.4903 10.7247 19.9499 10.538C20.4096 10.3514 20.8024 10.0353 21.0788 9.62983C21.3552 9.22433 21.5027 8.74759 21.5027 8.25991C21.5027 7.93599 21.4376 7.61524 21.3111 7.31599C21.1846 7.01674 20.9992 6.74485 20.7655 6.51585C20.5318 6.28686 20.2543 6.10525 19.949 5.98139C19.6436 5.85753 19.3164 5.79386 18.9859 5.79401H18.9865ZM18.9865 9.66899C18.7022 9.66899 18.4243 9.58635 18.1879 9.43152C17.9515 9.27669 17.7672 9.05662 17.6584 8.79914C17.5496 8.54167 17.5212 8.25835 17.5766 7.98501C17.6321 7.71168 17.769 7.4606 17.9701 7.26354C18.1711 7.06647 18.4272 6.93227 18.7061 6.8779C18.9849 6.82353 19.274 6.85144 19.5366 6.95809C19.7993 7.06474 20.0238 7.24534 20.1818 7.47707C20.3397 7.70879 20.424 7.98122 20.424 8.25991C20.424 8.445 20.3868 8.62828 20.3145 8.79928C20.2423 8.97027 20.1363 9.12563 20.0028 9.25649C19.8692 9.38734 19.7107 9.49112 19.5362 9.5619C19.3618 9.63268 19.1748 9.66907 18.9859 9.66899H18.9865ZM4.67097 13.1666C3.35754 13.1666 3.33133 14.2902 3.33133 14.5106C3.33133 14.731 2.9108 15.0187 2.55375 15.0187C1.98353 15.0187 1.92004 14.55 1.92004 13.7935C1.92004 12.9633 3.216 11.721 4.24986 11.721H5.53999C6.00596 11.721 6.69791 12.1332 6.69791 12.1332C6.5156 12.2993 5.88597 12.9325 5.64367 13.2231L4.67097 13.1666ZM18.1932 13.2237C17.9509 12.9348 17.3195 12.2999 17.139 12.1337C17.139 12.1337 17.8303 11.7215 18.2969 11.7215H19.587C20.6186 11.7215 21.9168 12.9639 21.9168 13.7941C21.9168 14.5505 21.8534 15.0193 21.2831 15.0193C20.9261 15.0193 20.5056 14.7338 20.5056 14.5112C20.5056 14.2885 20.4764 13.1672 19.1659 13.1672L18.1932 13.2237ZM14.3566 12.1332H14.0933C13.4247 12.4873 12.6767 12.6728 11.9167 12.6728C11.1567 12.6728 10.4087 12.4873 9.74007 12.1332H9.47563C7.45452 12.1332 5.81549 13.8723 5.81549 16.0156V16.9862C5.81549 17.8797 6.49871 18.6048 7.34094 18.6048H16.4913C17.3335 18.6048 18.0167 17.8797 18.0167 16.9862V16.0156C18.0167 13.8723 16.3777 12.1332 14.3566 12.1332ZM16.4709 17.1249H7.37822V15.3493C7.37822 14.9936 8.02358 13.6884 9.49835 13.6884C9.60203 13.6884 10.8811 14.1634 11.9243 14.1634C12.9674 14.1634 14.257 13.6901 14.349 13.6896C15.9275 13.6753 16.4703 15.174 16.4703 15.4401L16.4709 17.1249Z" fill="#002A3D"/>
</svg>
